<?xml version="1.0" standalone="no"?>
<!DOCTYPE svg PUBLIC "-//W3C//DTD SVG 20010904//EN"
 "http://www.w3.org/TR/2001/REC-SVG-20010904/DTD/svg10.dtd">
<svg version="1.0" xmlns="http://www.w3.org/2000/svg"
 width="96.000000pt" height="96.000000pt" viewBox="0 0 96.000000 96.000000"
 preserveAspectRatio="xMidYMid meet">
<metadata>
Created by potrace 1.14, written by Peter Selinger 2001-2017
</metadata>
<g transform="translate(0.000000,96.000000) scale(0.100000,-0.100000)"
fill="#000000" stroke="none">
<path d="M63 765 c-26 -19 -44 -76 -36 -116 20 -103 169 -104 189 -1 l7 32
-47 0 c-34 0 -46 -4 -46 -15 0 -8 9 -15 20 -15 23 0 26 -10 8 -28 -17 -17 -54
-15 -72 4 -18 18 -21 66 -6 95 13 23 62 26 80 4 15 -19 50 -20 50 -2 0 8 -10
23 -23 35 -28 26 -92 30 -124 7z"/>
<path d="M250 675 c0 -98 1 -105 20 -105 16 0 20 7 20 35 0 28 4 35 20 35 13
0 26 -12 37 -35 12 -25 23 -35 40 -35 27 0 28 2 7 42 -15 29 -15 34 1 60 19
32 15 67 -11 92 -10 11 -34 16 -75 16 l-59 0 0 -105z m105 35 c0 -21 -5 -26
-32 -28 -31 -3 -33 -1 -33 28 0 29 2 31 33 28 27 -2 32 -7 32 -28z"/>
<path d="M495 763 c-9 -23 -65 -186 -65 -190 0 -2 11 -3 24 -3 17 0 26 7 30
25 5 21 12 25 45 25 33 0 40 -4 45 -25 5 -18 13 -25 31 -25 14 0 25 2 25 4 0
3 -16 50 -36 105 -34 95 -38 101 -64 101 -17 0 -31 -7 -35 -17z m49 -65 c10
-39 7 -48 -18 -48 -23 0 -24 2 -13 35 12 40 22 44 31 13z"/>
<path d="M660 675 c0 -98 1 -105 20 -105 17 0 19 8 22 65 l3 65 44 -65 c28
-40 51 -65 63 -65 16 0 18 10 18 105 0 98 -1 105 -20 105 -17 0 -19 -8 -22
-65 l-3 -65 -44 65 c-28 40 -51 65 -63 65 -16 0 -18 -10 -18 -105z"/>
<path d="M30 325 c0 -98 1 -105 20 -105 17 0 20 7 20 45 l0 45 45 0 45 0 0
-45 c0 -41 2 -45 25 -45 l25 0 0 105 0 105 -25 0 c-23 0 -25 -4 -25 -46 l0
-45 -42 3 c-43 3 -43 3 -46 46 -3 34 -7 42 -23 42 -18 0 -19 -8 -19 -105z"/>
<path d="M269 325 l-35 -105 23 0 c16 0 27 8 33 25 8 20 16 25 45 25 29 0 37
-5 45 -25 9 -22 50 -37 50 -18 0 4 -14 51 -32 105 -31 95 -33 98 -63 98 -29 0
-31 -3 -66 -105z m85 3 c6 -25 4 -28 -19 -28 -23 0 -25 3 -20 23 4 12 9 31 12
41 6 22 16 9 27 -36z"/>
<path d="M460 326 c0 -106 0 -106 25 -106 23 0 24 4 27 61 l3 61 43 -61 c28
-39 50 -61 62 -61 19 0 20 7 20 105 0 105 0 105 -25 105 -23 0 -24 -4 -27 -61
l-3 -61 -40 58 c-26 37 -48 60 -63 62 -22 3 -22 1 -22 -102z"/>
<path d="M670 325 l0 -105 61 0 c54 0 64 3 90 29 24 24 29 38 29 76 0 38 -5
52 -29 76 -26 26 -36 29 -90 29 l-61 0 0 -105z m124 43 c33 -46 7 -108 -45
-108 l-29 0 0 65 0 65 29 0 c20 0 35 -8 45 -22z"/>
<path d="M880 255 c-10 -11 -10 -19 -2 -27 15 -15 44 -2 40 19 -4 23 -22 27
-38 8z"/>
</g>
</svg>
